<?xml version="1.0" encoding="UTF-8"?><svg id="Ebene_2" xmlns="http://www.w3.org/2000/svg" width="19.55mm" height="19.48mm" xmlns:xlink="http://www.w3.org/1999/xlink" viewBox="0 0 55.42 55.2"><defs><linearGradient id="Unbenannter_Verlauf_10" x1="11.43" y1="48.04" x2="37.22" y2="48.04" gradientUnits="userSpaceOnUse"><stop offset="0" stop-color="#324a60"/><stop offset=".22" stop-color="#50757f"/><stop offset=".45" stop-color="#6a9a9b"/><stop offset=".67" stop-color="#7db5af"/><stop offset=".86" stop-color="#88c6bb"/><stop offset="1" stop-color="#8dccc0"/></linearGradient></defs><g id="Ebene_1-2"><g><path d="M37.22,40.94l-5.14-8.91c-.11-.19-.38-.19-.49,0l-5.14,8.91h10.78Z" style="fill:#8dccc0;"/><g><polygon points="11.43 55.15 37.22 40.94 26.44 40.94 16.64 46.19 15.81 47.62 11.51 55.06 11.43 55.15" style="fill:url(#Unbenannter_Verlauf_10);"/><path d="M55.38,40.51l-7.53-13.05L32.08,.14c-.11-.19-.38-.19-.49,0L15.81,27.46,.04,54.78c-.06,.1-.05,.21,0,.29,.05,.08,.13,.14,.24,.14H11.26c.1,0,.2-.05,.25-.14l4.3-7.45,.83-1.43,14.95-25.89c.11-.19,.38-.19,.49,0l11.83,20.49c.05,.09,.15,.14,.25,.14h10.98c.22,0,.36-.24,.25-.43Z" style="fill:#324a60;"/></g></g></g></svg>