<?xml version="1.0" encoding="UTF-8"?><svg id="Ebene_2" xmlns="http://www.w3.org/2000/svg" width="70.3mm" height="19.48mm" xmlns:xlink="http://www.w3.org/1999/xlink" viewBox="0 0 199.29 55.2"><defs><linearGradient id="Unbenannter_Verlauf_10" x1="11.43" y1="48.04" x2="37.22" y2="48.04" gradientUnits="userSpaceOnUse"><stop offset="0" stop-color="#324a60"/><stop offset=".22" stop-color="#50757f"/><stop offset=".45" stop-color="#6a9a9b"/><stop offset=".67" stop-color="#7db5af"/><stop offset=".86" stop-color="#88c6bb"/><stop offset="1" stop-color="#8dccc0"/></linearGradient></defs><g id="Ebene_1-2"><g><path d="M37.22,40.94l-5.14-8.91c-.11-.19-.38-.19-.49,0l-5.14,8.91h10.78Z" style="fill:#8dccc0;"/><g><polygon points="11.43 55.15 37.22 40.94 26.44 40.94 16.64 46.19 15.81 47.62 11.51 55.06 11.43 55.15" style="fill:url(#Unbenannter_Verlauf_10);"/><path d="M55.38,40.51l-7.53-13.05L32.08,.14c-.11-.19-.38-.19-.49,0L15.81,27.46,.04,54.78c-.06,.1-.05,.21,0,.29,.05,.08,.13,.14,.24,.14H11.26c.1,0,.2-.05,.25-.14l4.3-7.45,.83-1.43,14.95-25.89c.11-.19,.38-.19,.49,0l11.83,20.49c.05,.09,.15,.14,.25,.14h10.98c.22,0,.36-.24,.25-.43Z" style="fill:#324a60;"/></g><g><path d="M86.05,40.9h-5.18c-.14,0-.26-.09-.3-.22l-1.09-3.31c-.04-.11-.13-.18-.25-.18h-6.41c-.11,0-.21,.07-.25,.18l-1.1,3.35c-.04,.11-.13,.18-.25,.18h-5.22c-.18,0-.31-.18-.24-.35l7.7-20.43c.05-.13,.17-.21,.31-.21h4.54c.12,0,.23,.07,.27,.19l7.71,20.46c.06,.17-.06,.35-.24,.35Zm-8.16-8.34l-1.61-4.89c-.08-.24-.42-.24-.51,0l-1.61,4.9c-.06,.17,.07,.34,.24,.34h3.24c.18,0,.31-.18,.25-.35Z" style="fill:#324a60;"/><path d="M99.59,25.15l-5.48,15.35c-.04,.1-.13,.17-.24,.17h-4.63c-.11,0-.2-.07-.24-.17l-5.48-15.35c-.06-.17,.06-.34,.24-.34h4.42c.11,0,.2,.07,.24,.17l3.14,8.8,3.14-8.8c.04-.1,.13-.17,.24-.17h4.42c.18,0,.3,.17,.24,.34Z" style="fill:#324a60;"/><path d="M116.31,32.86c0,.46-.05,1-.14,1.47-.02,.12-.13,.21-.25,.21h-11.11c-.2,0-.32,.21-.22,.38,.68,1.16,1.9,1.88,3.25,1.88,1.15,0,2.22-.5,2.98-1.48,.06-.08,.15-.11,.25-.1l4.25,.76c.16,.03,.26,.21,.18,.36-.1,.2-.22,.45-.29,.57h0s-.07,.12-.07,.12c-.06,.11-.13,.22-.21,.34-.1,.15-.19,.28-.28,.4l-.05,.07h0s-.06,.08-.09,.12l-.05,.06c-.06,.07-.12,.14-.17,.21l-.05,.06c-.09,.11-.19,.21-.29,.31l-.06,.06c-.07,.07-.13,.13-.2,.2l-.02,.02c-.07,.07-.15,.14-.23,.21l-.08,.07-.1-.08,.08,.09c-.12,.1-.23,.19-.34,.27l-.1,.07c-.13,.1-.26,.19-.4,.28l-.04,.02c-.16,.1-.31,.19-.47,.28l-.05,.03s-.08,.04-.12,.06h-.03c-.07,.05-.14,.09-.21,.12l-.04,.02c-.15,.07-.29,.14-.43,.19h-.03c-.1,.05-.18,.08-.26,.11l-.1,.04c-.1,.04-.21,.07-.31,.11h-.02c-.11,.04-.23,.07-.37,.11l-.1,.02c-.24,.06-.48,.11-.72,.15h-.09c-.26,.05-.51,.08-.76,.09h-.09c-.15,.01-.27,.01-.39,.01s-.25,0-.39,0c-.03,0-.06,0-.09,0h-.03c-.1,0-.19-.01-.29-.02h-.03s-.06,0-.08-.01c-.14-.01-.26-.03-.37-.05h0s0,0,0,0h-.07c-.1-.03-.2-.04-.31-.07l-.11-.02c-.09-.02-.18-.04-.27-.06h-.03s-.05-.02-.08-.03c-.13-.03-.25-.07-.36-.1-.12-.04-.24-.08-.35-.12-.03,0-.05-.02-.08-.03h-.02c-.08-.04-.17-.07-.25-.11h-.02s-.05-.03-.08-.04c-.11-.05-.22-.1-.33-.15h-.01c-.1-.05-.21-.11-.32-.17-.02-.01-.05-.03-.08-.04h-.02c-.08-.05-.16-.1-.23-.14l-.09-.06c-.1-.06-.21-.13-.31-.19-1-.67-1.87-1.56-2.5-2.58-.05-.08-.1-.17-.15-.26l-.02-.04c-.05-.08-.09-.17-.14-.26l-.02-.05s-.03-.05-.04-.08c-.16-.32-.3-.67-.42-1.02-.07-.2-.12-.37-.16-.52-.03-.13-.07-.27-.09-.4-.08-.41-.14-.83-.16-1.25,0-.14-.01-.28-.01-.43s0-.29,.01-.43c.04-.74,.18-1.47,.41-2.17,.08-.23,.16-.44,.24-.63,.05-.11,.1-.22,.15-.33,.01-.03,.03-.05,.04-.08l.03-.06s.02-.05,.04-.08c.01-.03,.03-.05,.04-.08l.07-.13c.06-.11,.12-.21,.18-.31,.63-1.02,1.49-1.91,2.5-2.58,.1-.07,.2-.13,.31-.19l.09-.06c.08-.05,.16-.09,.23-.13h.02s.05-.04,.08-.05c.11-.06,.22-.11,.33-.16,.11-.05,.22-.1,.34-.15,.03-.01,.05-.02,.08-.03h.02c.08-.04,.17-.08,.25-.11h.02s.05-.03,.08-.04c.12-.04,.23-.08,.35-.12,.12-.04,.24-.07,.36-.1,.03,0,.05-.01,.08-.02h.03c.09-.03,.18-.05,.27-.07h.06c.11-.04,.29-.07,.4-.09h.02s0,0,0,0h0c.11-.02,.23-.03,.37-.05,.03,0,.06,0,.08,0h.03c.09-.01,.19-.02,.29-.02h.02s.06,0,.09,0c.15,0,.27,0,.39,0s.24,0,.38,0h.09c.26,.02,.51,.04,.76,.08l.1,.02c.24,.04,.48,.09,.72,.14l.1,.03c.13,.04,.25,.07,.36,.1h.02c.11,.04,.21,.08,.32,.11,.03,.01,.06,.02,.1,.03,.09,.04,.18,.07,.26,.1l.04,.02c.14,.06,.28,.12,.43,.19l.04,.02c.07,.04,.14,.07,.2,.1h.02s-.05,.12-.05,.12l.07-.11s.08,.04,.12,.06c.14,.08,.37,.22,.51,.3h.02c.15,.11,.29,.2,.42,.3l.02,.02s.05,.04,.08,.06c.12,.09,.23,.18,.34,.28l.07,.06c.09,.07,.17,.15,.26,.23l.02,.02c.07,.06,.13,.13,.2,.2l.05,.05c.11,.11,.2,.21,.29,.31l-.08,.1,.1-.08,.04,.05c.06,.07,.11,.13,.17,.2l.05,.07c.06,.08,.13,.16,.19,.25h0c.05,.08,.1,.15,.15,.22l.09,.14c.04,.06,.08,.12,.12,.18l.16,.26h0c.31,.55,.56,1.13,.74,1.72,.23,.76,.34,1.55,.34,2.34Zm-4.96-2.1c-.2-1.17-1.55-2.08-3.27-2.08-1.56,0-3.05,.9-3.27,2.08-.03,.16,.09,.3,.25,.3h6.04c.16,0,.28-.14,.25-.3Z" style="fill:#324a60;"/><path d="M132.6,31.49v8.92c0,.14-.11,.25-.25,.25h-4.73c-.14,0-.25-.11-.25-.25v-8.67c0-.59-.03-1.26-.28-1.81-.11-.23-.26-.42-.44-.56-.3-.23-.68-.35-1.17-.35-.91,0-1.62,.31-1.84,.82-.26,.55-.26,1.3-.26,1.9v8.67c0,.14-.11,.25-.25,.25h-4.73c-.14,0-.25-.11-.25-.25v-15.35c0-.14,.11-.25,.25-.25h4.43c.14,0,.25,.11,.25,.25v.43c0,.1,.11,.16,.2,.1,3.57-2.46,7.05,.27,7.08,.3,.13,.1,.25,.21,.36,.31h0c1.62,1.63,1.89,2.94,1.89,5.28Z" style="fill:#324a60;"/><path d="M143.71,36.84l-.57,3.75c-.02,.12-.12,.21-.24,.21-.54,.03-2,.11-2.44,.11-.04,0-.06,0-.09,0-2.69-.14-4.12-1.52-4.12-4v-7.61c0-.14-.11-.25-.25-.25h-1.65c-.14,0-.25-.11-.25-.25v-3.75c0-.14,.11-.25,.25-.25h1.65c.14,0,.25-.11,.25-.25v-4.35c0-.14,.11-.25,.25-.25h4.43c.14,0,.25,.11,.25,.25v4.35c0,.14,.11,.25,.25,.25h1.65c.14,0,.25,.11,.25,.25v3.75c0,.14-.11,.25-.25,.25h-1.65c-.14,0-.25,.11-.25,.25,0,1.32,0,5.21,0,5.25v.11c-.02,.48-.04,1.14,.34,1.54,.23,.23,.58,.35,1.05,.35h.86c.15,0,.27,.14,.25,.29Z" style="fill:#324a60;"/><path d="M162.83,25.06v15.35c0,.14-.11,.25-.25,.25h-4.43c-.14,0-.25-.11-.25-.25v-.23c0-.1-.11-.16-.19-.11-1.27,.72-2.71,1.1-4.18,1.1-4.64,0-8.42-3.73-8.42-8.3s3.78-8.3,8.42-8.3c1.47,0,2.91,.38,4.18,1.1,.08,.05,.19-.01,.19-.11v-.48c0-.14,.11-.25,.25-.25h4.43c.14,0,.25,.11,.25,.25Zm-4.94,7.8c0-2.1-1.48-3.81-3.61-3.81s-3.86,1.71-3.86,3.81,1.73,3.81,3.86,3.81,3.61-1.71,3.61-3.81Z" style="fill:#324a60;"/><path d="M174.13,25.08l-.15,3.71c0,.15-.13,.26-.28,.24-.43-.04-1.3-.1-1.81,.03-.57,.14-.9,.58-1,.79-.26,.55-.26,1.03-.26,1.65v8.92c0,.14-.11,.25-.25,.25h-4.73c-.14,0-.25-.11-.25-.25v-15.35c0-.14,.11-.25,.25-.25h4.43c.14,0,.25,.11,.25,.25v.44c0,.1,.11,.16,.19,.11,1.05-.65,2.29-.79,3.34-.8,.15,0,.26,.12,.26,.26Z" style="fill:#324a60;"/><path d="M181.06,20.07v3.24c0,.14-.11,.25-.25,.25h-4.43c-.14,0-.25-.11-.25-.25v-3.24c0-.14,.11-.25,.25-.25h4.43c.14,0,.25,.11,.25,.25Zm0,4.99v15.35c0,.14-.11,.25-.25,.25h-4.43c-.14,0-.25-.11-.25-.25v-15.35c0-.14,.11-.25,.25-.25h4.43c.14,0,.25,.11,.25,.25Z" style="fill:#324a60;"/><path d="M199.29,32.87c0,4.58-3.78,8.3-8.42,8.3s-8.42-3.73-8.42-8.3,3.78-8.3,8.42-8.3,8.42,3.73,8.42,8.3Zm-4.75,0c0-2-1.65-3.62-3.67-3.62s-3.67,1.62-3.67,3.62,1.65,3.62,3.67,3.62,3.67-1.62,3.67-3.62Z" style="fill:#324a60;"/></g></g></g></svg>